{"asset":{"version":"2.0","generator":"THREE.GLTFExporter r175"},"scenes":[{"name":"AuxScene","nodes":[6]}],"scene":0,"nodes":[{"mesh":0},{"mesh":1},{"matrix":[0.06219057002520207,0,-0.06219057002520208,0,0,-0.08795074758135445,0,0,0.06219057002520208,0,0.06219057002520207,0,0,0,0,1],"children":[0,1]},{"children":[2]},{"matrix":[1,0,0,0,0,1,0,0,0,0,1,0,-35.48189083621303,12.225311855632377,35.23312856723276,1],"children":[3]},{"children":[4]},{"children":[5]}],"bufferViews":[{"buffer":0,"byteOffset":0,"byteLength":156024,"target":34962,"byteStride":12},{"buffer":0,"byteOffset":156024,"byteLength":104016,"target":34962,"byteStride":8},{"buffer":0,"byteOffset":260040,"byteLength":156024,"target":34962,"byteStride":12},{"buffer":0,"byteOffset":416064,"byteLength":22896,"target":34962,"byteStride":12},{"buffer":0,"byteOffset":438960,"byteLength":15264,"target":34962,"byteStride":8},{"buffer":0,"byteOffset":454224,"byteLength":22896,"target":34962,"byteStride":12}],"buffers":[{"byteLength":477120,"uri":"data:application/octet-stream;base64,"}],"accessors":[{"bufferView":0,"componentType":5126,"count":13002,"max":[1090.442138671875,262.3130187988281,4.599999904632568],"min":[-0.20712506771087646,-0.2978305220603943,-0.6000000238418579],"type":"VEC3"},{"bufferView":1,"componentType":5126,"count":13002,"max":[1090.442138671875,261.9949951171875],"min":[-0.20712506771087646,-3.5999999046325684],"type":"VEC2"},{"bufferView":2,"componentType":5126,"count":13002,"max":[0.9985578656196594,0.9999811053276062,1],"min":[-0.9823904633522034,-0.9999896287918091,-1],"type":"VEC3"},{"bufferView":3,"componentType":5126,"count":1908,"max":[1137.3016357421875,278.3014221191406,4.599999904632568],"min":[971.87646484375,114.81075286865234,-0.6000000238418579],"type":"VEC3"},{"bufferView":4,"componentType":5126,"count":1908,"max":[1137,278],"min":[136.10861206054688,-3.5999999046325684],"type":"VEC2"},{"bufferView":5,"componentType":5126,"count":1908,"max":[0.9950436353683472,0.9955245852470398,1],"min":[-0.9952411651611328,-0.9964406490325928,-1],"type":"VEC3"}],"materials":[{"pbrMetallicRoughness":{"baseColorFactor":[0.6375968739867731,0.6653872982754769,0.7083757798856457,1],"metallicFactor":0,"roughnessFactor":0.3},"doubleSided":true,"extensions":{"KHR_materials_transmission":{"transmissionFactor":1},"KHR_materials_volume":{"thicknessFactor":0,"attenuationColor":[1,1,1]}}}],"meshes":[{"primitives":[{"mode":4,"attributes":{"POSITION":0,"TEXCOORD_0":1,"NORMAL":2},"material":0}]},{"primitives":[{"mode":4,"attributes":{"POSITION":3,"TEXCOORD_0":4,"NORMAL":5},"material":0}]}],"extensionsUsed":["KHR_materials_transmission","KHR_materials_volume"]}